<svg width="48" height="48" viewBox="0 0 48 48" fill="none" xmlns="http://www.w3.org/2000/svg">
<g id="global-line" clip-path="url(#clip0_4402_11747)">
<g id="Group">
<path id="Vector" d="M24 48C10.7448 48 0 37.2552 0 24C0 10.7448 10.7448 0 24 0C37.2552 0 48 10.7448 48 24C48 37.2552 37.2552 48 24 48ZM18.504 42.4008C16.1362 37.3784 14.7645 31.9445 14.4648 26.4H4.9488C5.41581 30.0934 6.94541 33.5716 9.35176 36.4121C11.7581 39.2526 14.9376 41.3331 18.504 42.4008ZM19.272 26.4C19.6344 32.2536 21.3072 37.752 24 42.6048C26.7656 37.6237 28.3811 32.0868 28.728 26.4H19.272ZM43.0512 26.4H33.5352C33.2355 31.9445 31.8638 37.3784 29.496 42.4008C33.0624 41.3331 36.2419 39.2526 38.6482 36.4121C41.0546 33.5716 42.5842 30.0934 43.0512 26.4ZM4.9488 21.6H14.4648C14.7645 16.0555 16.1362 10.6216 18.504 5.5992C14.9376 6.66691 11.7581 8.74741 9.35176 11.5879C6.94541 14.4284 5.41581 17.9066 4.9488 21.6ZM19.2744 21.6H28.7256C28.3794 15.9134 26.7647 10.3765 24 5.3952C21.2344 10.3763 19.6189 15.9132 19.272 21.6H19.2744ZM29.496 5.5992C31.8638 10.6216 33.2355 16.0555 33.5352 21.6H43.0512C42.5842 17.9066 41.0546 14.4284 38.6482 11.5879C36.2419 8.74741 33.0624 6.66691 29.496 5.5992Z" fill="#212121" fill-opacity="0.5"/>
</g>
</g>
<defs>
<clipPath id="clip0_4402_11747">
<rect width="48" height="48" fill="white"/>
</clipPath>
</defs>
</svg>
